<?xml version="1.0" encoding="UTF-8" standalone="no"?>
<svg
   xmlns:dc="http://purl.org/dc/elements/1.1/"
   xmlns:cc="http://creativecommons.org/ns#"
   xmlns:rdf="http://www.w3.org/1999/02/22-rdf-syntax-ns#"
   xmlns:svg="http://www.w3.org/2000/svg"
   xmlns="http://www.w3.org/2000/svg"
   width="189.0775mm"
   height="39.420799mm"
   viewBox="0 0 189.0775 39.420799"
   version="1.1"
   id="svg8">
  <defs
     id="defs2" />
  <metadata
     id="metadata5">
    <rdf:RDF>
      <cc:Work
         rdf:about="">
        <dc:format>image/svg+xml</dc:format>
        <dc:type
           rdf:resource="http://purl.org/dc/dcmitype/StillImage" />
        <dc:title></dc:title>
      </cc:Work>
    </rdf:RDF>
  </metadata>
  <g
     id="layer1"
     transform="translate(-80.362832,-104.16936)">
    <g
       aria-label="LIVRES"
       id="text12"
       style="font-style:normal;font-variant:normal;font-weight:bold;font-stretch:normal;font-size:50.8px;line-height:1.25;font-family:'Libre Bodoni';-inkscape-font-specification:'Libre Bodoni, Bold';font-variant-ligatures:normal;font-variant-caps:normal;font-variant-numeric:normal;font-variant-east-asian:normal;fill:#000000;fill-opacity:1;stroke:none;stroke-width:0.264583">
      <path
         d="m 80.362832,104.62656 h 18.8468 v 1.524 h -5.9944 v 35.2552 h 8.635998 q 2.1336,0 3.7592,-0.8636 1.6764,-0.9144 2.8448,-2.3876 1.1684,-1.524 1.778,-3.5052 0.6096,-1.9812 0.6604,-4.1656 h 2.032 v 12.446 H 80.362832 v -1.524 h 4.826 v -35.2552 h -4.826 z"
         style="font-style:normal;font-variant:normal;font-weight:bold;font-stretch:normal;font-size:50.8px;font-family:'Libre Bodoni';-inkscape-font-specification:'Libre Bodoni, Bold';font-variant-ligatures:normal;font-variant-caps:normal;font-variant-numeric:normal;font-variant-east-asian:normal;stroke-width:0.264583"
         id="path14" />
      <path
         d="m 114.95762,104.62656 h 17.8308 v 1.524 h -4.9784 v 35.2552 h 4.9784 v 1.524 h -17.8308 v -1.524 h 4.826 v -35.2552 h -4.826 z"
         style="font-style:normal;font-variant:normal;font-weight:bold;font-stretch:normal;font-size:50.8px;font-family:'Libre Bodoni';-inkscape-font-specification:'Libre Bodoni, Bold';font-variant-ligatures:normal;font-variant-caps:normal;font-variant-numeric:normal;font-variant-east-asian:normal;stroke-width:0.264583"
         id="path16" />
      <path
         d="m 168.45,106.15056 h -3.6068 l -13.6652,37.2364 h -1.3208 l -13.5636,-37.2364 h -4.0132 v -1.524 h 16.8656 v 1.524 h -4.064 l 8.89,24.4856 h 0.2032 l 8.9916,-24.4856 h -5.9436 v -1.524 H 168.45 Z"
         style="font-style:normal;font-variant:normal;font-weight:bold;font-stretch:normal;font-size:50.8px;font-family:'Libre Bodoni';-inkscape-font-specification:'Libre Bodoni, Bold';font-variant-ligatures:normal;font-variant-caps:normal;font-variant-numeric:normal;font-variant-east-asian:normal;stroke-width:0.264583"
         id="path18" />
      <path
         d="m 168.44999,104.62656 h 20.32 q 2.7432,0 5.08,0.6096 2.3876,0.5588 4.1148,1.6764 1.778,1.1176 2.7432,2.7432 1.016,1.6256 1.016,3.7084 0,3.9116 -2.9464,6.2484 -2.8956,2.286 -7.7724,2.9972 v 0.3048 q 1.7272,0.4064 3.4036,1.3716 1.6764,0.9144 2.9972,2.2352 1.3208,1.3208 2.1336,2.9972 0.8128,1.6256 0.8128,3.4544 v 2.286 q 0,3.5052 0.762,4.7752 0.762,1.27 2.7432,1.27 h 1.9304 v 1.6256 h -5.9436 q -1.9304,0 -3.556,-0.5588 -1.6256,-0.5588 -2.8956,-1.5748 -1.2192,-1.016 -1.9812,-2.4384 -0.7112,-1.4224 -0.762,-3.2004 l -0.254,-5.5372 q -0.1524,-3.4036 -1.9812,-4.9784 -1.778,-1.6256 -4.6736,-1.6256 h -2.4384 v 18.3896 h 5.9944 v 1.524 h -18.8468 v -1.524 h 4.826 v -35.2552 h -4.826 z m 12.8524,1.524 v 15.3416 h 3.9116 q 1.8288,0 3.0988,-0.3048 1.3208,-0.3048 2.1336,-1.1684 0.8636,-0.8636 1.2192,-2.3876 0.4064,-1.524 0.4064,-3.9116 0,-2.3876 -0.4064,-3.8608 -0.3556,-1.4732 -1.1176,-2.286 -0.7112,-0.8636 -1.8288,-1.1176 -1.0668,-0.3048 -2.4892,-0.3048 z"
         style="font-style:normal;font-variant:normal;font-weight:bold;font-stretch:normal;font-size:50.8px;font-family:'Libre Bodoni';-inkscape-font-specification:'Libre Bodoni, Bold';font-variant-ligatures:normal;font-variant-caps:normal;font-variant-numeric:normal;font-variant-east-asian:normal;stroke-width:0.264583"
         id="path20" />
      <path
         d="m 206.04199,104.62656 h 31.8008 v 10.16 h -2.032 q -0.0508,-1.7272 -0.6096,-3.302 -0.5588,-1.5748 -1.6256,-2.7432 -1.0668,-1.2192 -2.5908,-1.8796 -1.524,-0.7112 -3.4544,-0.7112 h -8.636 v 17.1704 q 2.4384,0 4.1656,-0.4064 1.7272,-0.4064 2.794,-1.2192 1.0668,-0.8128 1.5748,-2.032 0.508,-1.27 0.5588,-2.9464 h 2.032 v 15.24 h -2.032 q -0.1016,-3.6068 -2.1336,-5.334 -2.032,-1.7272 -6.9596,-1.778 v 16.5608 h 8.636 q 2.1336,0 3.7592,-0.8636 1.6764,-0.9144 2.8448,-2.3876 1.1684,-1.524 1.778,-3.5052 0.6096,-1.9812 0.6604,-4.1656 h 2.032 v 12.446 h -32.5628 v -1.524 h 4.826 v -35.2552 h -4.826 z"
         style="font-style:normal;font-variant:normal;font-weight:bold;font-stretch:normal;font-size:50.8px;font-family:'Libre Bodoni';-inkscape-font-specification:'Libre Bodoni, Bold';font-variant-ligatures:normal;font-variant-caps:normal;font-variant-numeric:normal;font-variant-east-asian:normal;stroke-width:0.264583"
         id="path22" />
      <path
         d="m 245.10713,142.92976 h -1.524 v -10.668 h 1.5748 q 0.4572,1.8796 1.3208,3.6068 0.9144,1.7272 2.3368,3.048 1.4224,1.3208 3.4036,2.1336 1.9812,0.762 4.572,0.762 2.1336,0 3.7084,-0.508 1.6256,-0.5588 2.6924,-1.4732 1.1176,-0.9652 1.6764,-2.2352 0.5588,-1.27 0.5588,-2.7432 0,-1.9812 -0.9652,-3.1496 -0.9144,-1.2192 -2.3368,-1.9304 -1.3716,-0.7112 -3.048,-1.0668 -1.6764,-0.4064 -3.1496,-0.8128 -2.6924,-0.6604 -4.8768,-1.6256 -2.1844,-1.016 -3.7592,-2.4892 -1.5748,-1.4732 -2.4384,-3.4544 -0.8636,-1.9812 -0.8636,-4.6736 0,-2.8956 0.9652,-5.0292 1.016,-2.1844 2.6416,-3.6068 1.6764,-1.4224 3.81,-2.1336 2.1844,-0.7112 4.5212,-0.7112 2.286,0 4.064,0.6604 1.8288,0.6604 3.8608,1.9304 l 1.9812,-2.1336 h 1.5748 v 10.3632 h -1.524 q -1.4732,-4.8768 -3.9624,-6.9596 -2.4384,-2.0828 -6.096,-2.0828 -1.6764,0 -3.1496,0.4064 -1.4224,0.4064 -2.4892,1.1176 -1.0668,0.7112 -1.6764,1.778 -0.6096,1.0668 -0.6096,2.3368 0,1.6256 0.9144,2.6416 0.9652,1.016 2.3876,1.6764 1.4732,0.6604 3.1496,1.0668 1.6764,0.3556 3.2004,0.7112 2.8956,0.7112 5.08,1.778 2.2352,1.016 3.7084,2.5908 1.524,1.5748 2.286,3.7592 0.8128,2.1336 0.8128,5.08 0,5.9944 -3.2004,9.3472 -3.2004,3.3528 -9.2964,3.3528 -3.1496,0 -5.3848,-0.8636 -2.1844,-0.8636 -4.064,-2.2352 z"
         style="font-style:normal;font-variant:normal;font-weight:bold;font-stretch:normal;font-size:50.8px;font-family:'Libre Bodoni';-inkscape-font-specification:'Libre Bodoni, Bold';font-variant-ligatures:normal;font-variant-caps:normal;font-variant-numeric:normal;font-variant-east-asian:normal;stroke-width:0.264583"
         id="path24" />
    </g>
  </g>
</svg>
