<?xml version="1.0" encoding="UTF-8" standalone="no"?>
<svg
   xmlns:dc="http://purl.org/dc/elements/1.1/"
   xmlns:cc="http://creativecommons.org/ns#"
   xmlns:rdf="http://www.w3.org/1999/02/22-rdf-syntax-ns#"
   xmlns:svg="http://www.w3.org/2000/svg"
   xmlns="http://www.w3.org/2000/svg"
   width="28.582193mm"
   height="5.4143982mm"
   viewBox="0 0 28.582193 5.4143982"
   version="1.1"
   id="svg8">
  <defs
     id="defs2" />
  <metadata
     id="metadata5">
    <rdf:RDF>
      <cc:Work
         rdf:about="">
        <dc:format>image/svg+xml</dc:format>
        <dc:type
           rdf:resource="http://purl.org/dc/dcmitype/StillImage" />
        <dc:title></dc:title>
      </cc:Work>
    </rdf:RDF>
  </metadata>
  <g
     id="layer1"
     transform="translate(-75.129774,-104.84068)">
    <g
       aria-label="livres"
       id="text12"
       style="font-style:normal;font-variant:normal;font-weight:normal;font-stretch:normal;font-size:50.8px;line-height:1.25;font-family:'Men In Black Credits';-inkscape-font-specification:'Men In Black Credits, Normal';font-variant-ligatures:normal;font-variant-caps:normal;font-variant-numeric:normal;font-variant-east-asian:normal;fill:#000000;fill-opacity:1;stroke:none;stroke-width:0.264583">
      <path
         d="m 75.452235,110.25507 q -0.148828,-0.0992 -0.322461,-0.19843 0,-0.24805 0.04961,-1.0418 0.04961,-0.79375 0.148828,-3.96875 0.148828,-0.0248 0.446484,-0.0248 0.124024,0.29766 0,0.62012 -0.07441,2.72852 -0.07441,3.22461 0,0.47129 0.07441,0.69453 0.148828,0.0496 1.488282,0 1.364257,-0.0744 1.711523,-0.0496 0,0.14883 0,0.32246 0.02481,0.14883 0.02481,0.29766 -0.892969,0.0248 -1.785938,0.0744 -0.868164,0.0248 -1.761133,0.0496 z"
         style="font-style:normal;font-variant:normal;font-weight:normal;font-stretch:normal;font-size:50.8px;font-family:'Men In Black Credits';-inkscape-font-specification:'Men In Black Credits, Normal';font-variant-ligatures:normal;font-variant-caps:normal;font-variant-numeric:normal;font-variant-east-asian:normal;stroke-width:0.264583"
         id="path14" />
      <path
         d="m 81.107704,109.61015 q -0.04961,-0.0248 -0.07441,-0.0496 -0.02481,-0.0496 -0.04961,-0.0992 -0.02481,-0.96738 -0.04961,-1.95957 0,-1.01699 0,-2.03398 0.09922,0 0.198438,0 0.09922,0 0.223242,0 0.04961,0.0992 0.148828,0.24805 0,0.96738 0.04961,1.93476 0.07441,0.96738 -0.07441,1.88516 -0.09922,0.0248 -0.198437,0.0496 -0.09922,0.0248 -0.173633,0.0248 z"
         style="font-style:normal;font-variant:normal;font-weight:normal;font-stretch:normal;font-size:50.8px;font-family:'Men In Black Credits';-inkscape-font-specification:'Men In Black Credits, Normal';font-variant-ligatures:normal;font-variant-caps:normal;font-variant-numeric:normal;font-variant-east-asian:normal;stroke-width:0.264583"
         id="path16" />
      <path
         d="m 84.307509,109.98222 q -0.04961,0 -0.09922,-0.0248 -0.02481,-0.0248 -0.04961,-0.0496 0,-0.17363 -0.02481,-0.34727 0,-0.19844 0,-0.37207 -0.79375,-2.08359 -1.041797,-2.72851 -0.223242,-0.66973 -0.37207,-1.017 0,-0.5457 0.520898,-0.34726 0.272852,0.96738 0.595313,1.88515 0.347265,0.91778 0.669726,1.81075 0,0 0.09922,0.0496 0.967383,-1.43868 2.00918,-3.34864 0.09922,-0.71933 0.694531,-0.64492 -0.04961,0.59531 -0.496094,1.43867 -0.446484,0.84336 -0.868164,1.21543 -0.669726,1.16582 -0.79375,1.38907 -0.124023,0.19843 -0.223242,0.29765 -0.322461,0.74414 -0.620117,0.79375 z"
         style="font-style:normal;font-variant:normal;font-weight:normal;font-stretch:normal;font-size:50.8px;font-family:'Men In Black Credits';-inkscape-font-specification:'Men In Black Credits, Normal';font-variant-ligatures:normal;font-variant-caps:normal;font-variant-numeric:normal;font-variant-east-asian:normal;stroke-width:0.264583"
         id="path18" />
      <path
         d="m 92.120986,109.70937 q -0.198438,-0.0992 -0.272852,-0.44648 -1.16582,-1.14102 -2.356445,-1.36426 -0.148828,0.32246 -0.07441,0.76894 0.07441,0.42168 0.07441,0.76895 -0.124024,0 -0.248047,0 -0.124023,0 -0.248047,0 -0.272851,-0.39688 -0.148828,-0.76895 -0.02481,-0.76894 -0.04961,-1.53789 0,-0.76894 0,-1.56269 0.124023,-0.14883 0.446484,-0.22324 1.066602,-0.0248 2.604492,0.0992 1.562695,0.0992 0.545703,1.81075 -0.37207,0.29765 -1.289843,0.5705 0.173632,0.34727 1.066601,0.94258 0.892969,0.57051 -0.04961,0.94258 z m -2.728516,-2.43086 q 0.719336,0 1.314649,-0.0248 0.620117,-0.0248 1.289843,-0.29766 0.42168,-0.89297 -0.620117,-1.09141 -1.091406,0 -1.686719,0 -0.570507,0 -0.297656,1.41387 z"
         style="font-style:normal;font-variant:normal;font-weight:normal;font-stretch:normal;font-size:50.8px;font-family:'Men In Black Credits';-inkscape-font-specification:'Men In Black Credits, Normal';font-variant-ligatures:normal;font-variant-caps:normal;font-variant-numeric:normal;font-variant-east-asian:normal;stroke-width:0.264583"
         id="path20" />
      <path
         d="m 95.345596,110.10625 q -0.744141,-0.17364 -0.84336,-0.27286 0,-0.96738 0.07441,-1.98437 0.07441,-1.01699 -0.07441,-1.98438 0.148828,-0.22324 0.396875,-0.42168 1.95957,0.0744 2.356445,0.0992 0.396875,0 0.818555,0.0744 0,0.47129 -0.07441,0.5705 -0.520898,-0.0992 -1.463476,-0.17363 -0.917774,-0.0744 -1.364258,0.12403 0,0.29765 0,0.59531 0,0.29765 0,0.59531 0.446484,0 1.265039,-0.0496 0.843359,-0.0496 1.265039,0.17363 0,0.12403 0,0.24805 0,0.12402 0,0.22324 -0.347266,0.22325 -1.190625,0.12403 -0.84336,-0.0992 -1.240235,-0.0992 -0.223242,0.17363 -0.223242,0.71933 0.02481,0.5209 0.198438,0.71934 0.669726,0.0248 1.364258,0.0496 0.694531,0 1.389062,0 0.148828,0.29766 0,0.62012 -0.198437,0.0248 -0.620117,0 -0.396875,-0.0248 -2.033984,0.0496 z"
         style="font-style:normal;font-variant:normal;font-weight:normal;font-stretch:normal;font-size:50.8px;font-family:'Men In Black Credits';-inkscape-font-specification:'Men In Black Credits, Normal';font-variant-ligatures:normal;font-variant-caps:normal;font-variant-numeric:normal;font-variant-east-asian:normal;stroke-width:0.264583"
         id="path22" />
      <path
         d="m 100.97626,109.78378 q -0.44649,-0.14882 -1.091407,-0.29765 -0.644922,-0.17363 -0.620117,-0.76895 0.248047,-0.22324 0.595312,0.0248 0.372072,0.22324 0.620122,0.32246 0.81855,0.22324 1.81074,-0.0496 1.01699,-0.29766 0.76894,-1.43867 -0.81855,-0.74414 -2.08359,-0.37207 -1.26504,0.34726 -1.785938,-0.71934 0,-1.43867 1.984378,-1.51308 2.00918,-0.0744 1.95957,1.24023 -0.12403,0 -0.22325,0 -0.0992,0 -0.19843,0 -0.5209,-0.86816 -1.93477,-0.5457 -1.389061,0.29765 -0.818553,0.91777 0.818553,0 1.885153,-0.0248 1.0666,-0.0248 1.73633,0.64492 0.57051,1.53789 -1.33945,2.45566 -0.32246,0.0496 -0.64492,0.0744 -0.32246,0.0248 -0.62012,0.0496 z"
         style="font-style:normal;font-variant:normal;font-weight:normal;font-stretch:normal;font-size:50.8px;font-family:'Men In Black Credits';-inkscape-font-specification:'Men In Black Credits, Normal';font-variant-ligatures:normal;font-variant-caps:normal;font-variant-numeric:normal;font-variant-east-asian:normal;stroke-width:0.264583"
         id="path24" />
    </g>
  </g>
</svg>
